<svg width="65.088" height="76.173" viewBox="0 0 65.088 76.173" xmlns="http://www.w3.org/2000/svg"><g id="svgGroup" stroke-linecap="round" fill-rule="evenodd" font-size="9pt" stroke="#000000" stroke-width="0" fill="#000000e5" style="stroke:#000000;stroke-width:0;fill:#000000e5"><path d="M 60.547 60.743 L 65.088 65.284 A 35.022 35.022 0 0 1 53.56 73.109 A 39.933 39.933 0 0 1 53.126 73.292 A 38.604 38.604 0 0 1 40.474 76.102 A 45.165 45.165 0 0 1 37.94 76.172 A 41.985 41.985 0 0 1 27.793 74.982 A 36.673 36.673 0 0 1 22.754 73.34 Q 15.821 70.508 10.718 65.357 A 36.315 36.315 0 0 1 2.808 53.248 A 39.082 39.082 0 0 1 0.099 41.119 A 46.001 46.001 0 0 1 0.001 38.087 A 42.403 42.403 0 0 1 1.21 27.813 A 37.159 37.159 0 0 1 2.808 22.877 A 36.048 36.048 0 0 1 10.718 10.792 Q 15.821 5.665 22.754 2.833 A 38.475 38.475 0 0 1 34.393 0.136 A 45.726 45.726 0 0 1 37.94 0.001 Q 46.143 0.001 53.101 2.881 A 36.155 36.155 0 0 1 64.772 10.525 A 34.981 34.981 0 0 1 65.088 10.84 L 60.547 15.43 Q 56.397 10.889 50.562 8.326 A 30.719 30.719 0 0 0 39.933 5.825 A 36.185 36.185 0 0 0 37.794 5.762 A 32.931 32.931 0 0 0 29.013 6.905 A 29.542 29.542 0 0 0 25.342 8.179 Q 19.629 10.596 15.43 14.966 A 31.072 31.072 0 0 0 8.912 25.22 A 33.617 33.617 0 0 0 6.703 35.084 A 40.002 40.002 0 0 0 6.592 38.087 A 36.739 36.739 0 0 0 7.568 46.68 A 31.967 31.967 0 0 0 8.912 50.953 A 31.072 31.072 0 0 0 15.43 61.207 Q 19.629 65.577 25.342 67.994 Q 31.055 70.411 37.794 70.411 A 32.756 32.756 0 0 0 46.711 69.226 A 29.324 29.324 0 0 0 50.562 67.847 Q 56.397 65.284 60.547 60.743 Z"/></g></svg>