<?xml version="1.0" standalone="no"?>
<!DOCTYPE svg PUBLIC "-//W3C//DTD SVG 20010904//EN"
 "http://www.w3.org/TR/2001/REC-SVG-20010904/DTD/svg10.dtd">
<svg version="1.0" xmlns="http://www.w3.org/2000/svg"
 width="608.000000pt" height="608.000000pt" viewBox="0 0 608.000000 608.000000"
 preserveAspectRatio="xMidYMid meet">
<metadata>
Created by potrace 1.14, written by Peter Selinger 2001-2017
</metadata>
<g transform="translate(0.000000,608.000000) scale(0.100000,-0.100000)"
fill="#000000" stroke="none">
<path d="M3239 6075 c-2 -1 -40 -6 -84 -9 -77 -6 -102 -9 -184 -21 -21 -3 -55
-8 -74 -10 -82 -11 -316 -69 -441 -109 -102 -34 -287 -106 -311 -122 -11 -8
-27 -14 -36 -14 -10 0 -19 -3 -21 -7 -1 -5 -39 -26 -83 -47 -44 -22 -104 -55
-133 -73 -29 -18 -55 -33 -57 -33 -9 0 -170 -113 -173 -122 -2 -4 -8 -8 -13
-8 -8 0 -80 -51 -99 -70 -3 -3 -34 -30 -70 -60 -105 -89 -247 -236 -368 -380
-35 -41 -182 -248 -182 -255 0 -3 -19 -35 -43 -72 -24 -38 -63 -108 -88 -158
-24 -49 -47 -92 -50 -95 -3 -3 -8 -14 -12 -25 -3 -11 -23 -63 -45 -115 -73
-177 -118 -325 -158 -510 -24 -114 -28 -134 -39 -225 -4 -27 -8 -61 -11 -75
-18 -107 -26 -561 -12 -720 9 -99 18 -179 24 -210 2 -14 7 -41 10 -60 12 -82
48 -241 70 -315 14 -44 27 -90 29 -101 7 -30 69 -202 90 -250 9 -21 21 -48 25
-59 18 -46 116 -240 123 -243 4 -2 7 -7 7 -12 0 -8 65 -123 82 -145 5 -5 33
-48 64 -94 31 -46 63 -91 70 -100 7 -9 27 -34 44 -56 99 -127 268 -299 405
-412 111 -91 129 -105 148 -118 96 -63 174 -115 182 -122 6 -5 24 -16 40 -25
17 -8 86 -45 155 -80 103 -54 357 -164 395 -172 6 -1 49 -14 97 -30 48 -15 96
-29 105 -30 10 -2 36 -9 58 -14 37 -10 51 -13 118 -26 19 -4 92 -17 172 -32
20 -3 69 -9 180 -21 137 -16 629 -8 759 12 83 13 122 19 126 20 3 0 28 5 55
10 28 5 52 9 55 10 3 0 23 4 45 9 22 4 69 16 105 26 36 11 74 21 85 23 11 2
27 7 35 10 8 3 40 13 70 23 69 22 262 96 315 122 22 11 58 28 80 38 46 21 268
145 275 153 3 3 32 24 65 46 111 74 262 196 363 293 l62 61 -181 181 -181 181
-87 -85 c-47 -47 -101 -98 -120 -113 -18 -16 -45 -38 -60 -51 -47 -41 -274
-188 -361 -235 -76 -40 -285 -133 -320 -142 -3 0 -36 -12 -75 -25 -38 -13 -77
-24 -85 -25 -8 -1 -31 -7 -50 -13 -33 -11 -50 -15 -117 -27 -16 -3 -39 -8 -53
-11 -14 -3 -38 -8 -55 -9 -16 -2 -43 -6 -60 -10 -67 -13 -190 -20 -380 -20
-226 0 -289 5 -468 36 -32 6 -70 12 -85 14 -91 15 -303 82 -452 145 -160 67
-397 204 -501 291 -26 22 -49 39 -53 39 -16 0 -231 209 -317 310 -198 231
-363 519 -462 810 -54 158 -91 310 -113 455 -4 28 -9 57 -10 65 -3 14 -8 59
-20 180 -6 71 -6 388 0 460 3 30 8 82 11 115 3 33 8 71 10 85 3 14 7 41 10 60
10 62 47 235 52 243 2 4 7 20 9 35 3 15 17 60 31 101 14 41 26 79 28 85 1 6 7
22 12 36 6 14 20 48 31 75 67 169 223 447 297 531 6 7 19 24 30 40 70 98 286
325 376 394 18 14 38 31 45 38 7 6 17 12 23 12 6 0 11 4 11 8 0 4 13 16 30 25
16 10 35 23 42 30 22 21 189 121 283 169 86 44 254 117 285 123 8 2 42 13 75
25 33 12 71 24 85 26 14 3 43 10 65 16 51 14 140 32 259 52 168 28 574 28 771
0 53 -7 79 -12 85 -14 3 -1 8 -2 12 -1 4 0 36 -6 70 -15 35 -8 73 -16 85 -18
12 -1 25 -5 29 -9 4 -4 17 -7 29 -7 11 0 26 -5 33 -12 7 -7 12 -9 12 -6 0 7
116 -31 225 -73 159 -62 485 -252 591 -346 18 -16 45 -38 60 -51 16 -12 68
-60 115 -107 l87 -86 181 183 181 183 -52 50 c-129 122 -276 239 -420 332
-228 148 -558 296 -821 368 -141 38 -342 78 -452 90 -33 4 -78 9 -100 11 -47
6 -551 14 -556 9z"/>
</g>
</svg>
